<svg xmlns="http://www.w3.org/2000/svg" xmlns:xlink="http://www.w3.org/1999/xlink" version="1.1" id="twdc-site-logo" x="0px" y="0px" viewBox="0 0 250 250" style="enable-background:new 0 0 250 250;" xml:space="preserve">
<g>
	<g>
		<path class="st0" d="M54.6,167.9c0-8.1,4.5-12.4,10.6-12.4c5.6,0,8.2,3.1,9.3,7.5l-3.9,1.1c-0.9-3.2-2.3-4.8-5.5-4.8    c-4.1,0-6.4,3.1-6.4,8.6c0,5.7,2.4,8.9,6.5,8.9c3.1,0,4.9-1.6,5.8-5.2l3.9,0.9c-1.2,4.8-4.1,8-9.7,8    C59,180.4,54.6,176.2,54.6,167.9z" fill="white"></path>
		<path class="st0" d="M77.1,171.4c0-6.4,4.2-9,8.4-9c4.2,0,8.4,2.6,8.4,9c0,6.3-4.2,9-8.4,9C81.3,180.3,77.1,177.7,77.1,171.4z     M89.9,171.4c0-3.2-1.4-5.6-4.4-5.6c-2.9,0-4.4,2.1-4.4,5.6c0,3.3,1.3,5.6,4.4,5.6C88.4,177,89.9,174.9,89.9,171.4z" fill="white"></path>
		<path class="st0" d="M96.7,180v-17.2h4v2.4c1.3-1.5,3.3-2.7,5.9-2.7c2.9,0,4,1.1,4.7,2.8c1.4-1.5,3.4-2.8,6-2.8c3.5,0,5,2.1,5,5.2    V180h-4v-11.4c0-1.9-0.6-2.8-2.4-2.8c-1.6,0-2.9,0.9-4.4,2.2V180h-4v-11.4c0-1.9-0.6-2.8-2.4-2.8c-1.6,0-2.9,0.9-4.4,2.2V180H96.7    z" fill="white"></path>
		<path class="st0" d="M126.1,186.5v-23.7h4v2.3c1.1-1.4,2.9-2.6,5.5-2.6c3.9,0,6.8,3,6.8,8.9c0,6-3,8.9-7.4,8.9    c-1.9,0-3.7-0.7-4.9-2.2v8.4H126.1z M138.4,171.4c0-3.6-1.6-5.6-4.1-5.6c-1.7,0-3.2,1-4.2,2.2v6.9c1.1,1.4,2.6,2.1,4.1,2.1    C137.1,177.1,138.4,175.2,138.4,171.4z" fill="white"></path>
		<path class="st0" d="M144.1,175.8c0-3.7,3.2-6.2,11.2-7.1v-0.5c0-1.7-0.9-2.5-2.8-2.5c-2.4,0-4.4,1.2-5.8,2.3l-1.9-2.5    c1.9-1.7,4.7-3.1,8.3-3.1c4.6,0,6.2,2.2,6.2,6.2v7.1c0,2.1,0.1,3.3,0.5,4.2h-4c-0.2-0.7-0.4-1.2-0.4-2.2c-1.8,1.8-3.8,2.5-6.4,2.5    C146.2,180.2,144.1,178.7,144.1,175.8z M155.4,175.2v-3.8c-4.8,0.6-7.3,1.8-7.3,3.7c0,1.4,0.9,2.1,2.4,2.1    C152.5,177.2,154.1,176.4,155.4,175.2z" fill="white"></path>
		<path class="st0" d="M162.9,180v-17.2h4v2.8c1.3-1.5,3.3-3.1,6.2-3.1c3.1,0,5.1,1.6,5.1,5V180h-4v-11.4c0-1.9-0.8-2.9-2.6-2.9    c-1.8,0-3.2,0.9-4.7,2.2v12H162.9z" fill="white"></path>
		<path class="st0" d="M179.1,186.2l0.9-3.2c0.5,0.1,1.5,0.4,2.9,0.4c1.4,0,2.2-0.6,2.7-1.9l0.5-1.3l-6.6-17.3h4.2l4.4,12.6h0.1    l4.4-12.6h4l-7.3,19.1c-1.1,3-2.6,4.8-6,4.8C181.2,186.7,180,186.4,179.1,186.2z" fill="white"></path>
	</g>
	<g>
		<path class="st0" d="M104.9,87.3V67.1h-7.4v-3.8h18.9v3.8H109v20.3H104.9z" fill="white"></path>
		<path class="st0" d="M118.8,87.3v-24h4v9.1c1.1-1.2,3.2-2.7,6.3-2.7c3,0,5,1.8,5,5.2v12.4h-4V76c0-1.9-0.8-2.8-2.6-2.8    c-1.8,0-3.2,0.9-4.7,2.2v11.9H118.8z" fill="white"></path>
		<path class="st0" d="M136.8,78.7c0-6.6,4.6-9,8.2-9c3.9,0,7.6,2.3,7.6,9.3V80h-11.8c0.2,3.1,2.1,4.5,4.6,4.5c2.2,0,3.5-0.7,4.8-2    l2.1,2.1c-1.8,2-4.2,3.1-7.2,3.1C140.8,87.7,136.8,85.1,136.8,78.7z M148.9,77.1c-0.2-2.6-1.5-4-3.9-4c-1.9,0-3.7,1.1-4.1,4H148.9    z" fill="white"></path>
	</g>
	<path class="st0" d="M153.3,113.8c0,0,0.6-0.9,1.1-1.6c0.9-1.2,2.5-2.9,3.8-4c0.4-0.3,0.8-0.7,0.8-0.7s-0.7,0.1-1.1,0.2   c-0.9,0.2-2.3,1.1-3,1.7c-1.1,1-2.4,2.5-1.8,4C153.2,113.5,153.3,113.8,153.3,113.8 M159.6,115.5c1.8-0.1,3.5-0.6,5-1.5   c1.5-0.9,3.8-2.5,3.6-4.5c-0.1-0.6-0.5-1.1-1-1.3c-0.7-0.3-1-0.2-1.9,0c-0.6,0.2-0.9,0.3-1.5,0.6c-1.8,1-4.3,3.2-5.6,4.9   c-0.3,0.4-0.6,0.9-0.9,1.2c-0.2,0.2-0.3,0.4-0.3,0.4C157.1,115.5,158.9,115.5,159.6,115.5 M155,118.8c-0.2,0.2-0.4,0.7-0.6,1   c-0.1,0.2-0.3,0.4-0.4,0.5c-0.5,0.3-0.9,0.4-1.3,0c-0.6-0.6-1-1.4-1-2.3c0-0.4,0-0.8,0-1.1c-0.1-0.5-0.6-1.1-0.9-1.6   c-0.3-0.6-0.6-1.6-0.6-2.3c-0.1-2.1,1-4,2.4-5.5c1.4-1.5,3.3-2.8,5.3-3.6c1.9-0.8,4.7-1.4,6.8-0.6c0.7,0.2,1.6,0.8,2.1,1.4   c0.1,0.1,0.2,0.3,0.3,0.3c0.1,0.1,0.3,0.1,0.5,0.1c0.7,0.1,1.6,0.6,2,1c0.8,0.7,1.2,1.3,1.4,2.3c0.4,1.9-0.7,4-1.9,5.3   c-2.1,2.2-4.3,3.7-7,4.8c-1.2,0.5-3.1,0.9-4.4,0.8c-0.4,0-0.9-0.1-1.3-0.2c-0.2,0-1-0.2-1.1-0.3C155.2,118.9,155.1,118.8,155,118.8    M89.7,124.4c1.1-0.1,1.8-0.1,2.7-0.5c0.5-0.2,1.1-0.7,0.8-1.3c-0.2-0.4-0.8-0.5-1.1-0.4C90.9,122.3,90,123.2,89.7,124.4   C89.6,124.4,89.6,124.4,89.7,124.4 M94.7,121.5c0.7,0.8,1,1.8,1,2.9c0.1,1.1-0.3,2.1-0.9,2.9c-1,1.4-2.7,2.1-4.5,2.2   c-0.2,0-1.6,0.1-2-0.1c-0.1,0-0.1,0-0.1,0c0,0-0.3,1-0.3,1.3c-0.2,1.2-0.3,2-0.5,3c-0.1,0.7-0.2,1.5-0.3,2.3   c-0.4,4.6-0.3,6.9,0.1,11.5c0,0.3,0,0.6,0,0.8c-0.1,0.5-0.4,0.9-1,1.1c-1.6,0.4-3.1-1.2-3.9-2.4c-1.8-3-1.2-9-0.7-12   c0.2-1.2,0.8-4,1.2-5c0.2-0.5,0.5-1.6,0.5-1.6c0,0-0.9-0.4-1.6-0.7c-0.3-0.1-1.3-0.6-1.7-0.9c-0.9-0.5-1.4-1-2-1.6   c-0.2-0.2-0.8-1.1-0.9-1.3c-0.5-1.1-0.5-2-0.1-3.2c0.1-0.3,0.7-1.5,1.1-1.5c0.6,0.1,0.4,1,0.6,1.5c0.1,0.2,0.2,0.4,0.3,0.6   c0.8,0.9,3.4,2,4.5,2.3c0.2,0,1.8,0.6,2.1,0.4c0.1,0,0.4-0.6,0.6-0.9c0.1-0.2,0.2-0.3,0.4-0.5c1-1.1,2.6-2.2,4.1-2.5   c0.7-0.1,2,0,2.6,0.3C93.6,120.6,94,120.8,94.7,121.5 M78.7,134.6c0,0,0.1,0,0.2,0.1c0.8,0.3,0.8,1.7,0.6,2.4   c-0.5,1.7-2.1,3.5-3.4,4.4c-0.8,0.5-2.4,1.3-3.5,1.5c-1.8,0.3-3.3-0.1-4.3-1.6c-0.9-1.3-1.2-2.9-1.3-4.4   c-0.2-4.3,1.2-10.7,2.9-14.3c0.2-0.5,1.3-2.7,2.4-3.1c1-0.4,1.5,0.8,1.6,1.8c0.1,1.2-0.2,2.7-0.5,3.9c-0.5,2.2-1.3,5.6-1.4,6.6   c-0.2,1-0.6,3.2-0.5,4.4c0.1,0.6,0.2,0.9,0.6,0.9c0.2,0,3.1-1.4,4.7-2C77.3,134.8,78,134.6,78.7,134.6 M57.1,132.6c0,0,0.3,0,0.7,0   c1.1,0,2.9-0.2,2.9-0.2s-0.2-1.6-0.4-2.6c-0.1-0.7-0.2-1.1-0.4-1.6c-0.1-0.2-0.2-0.9-0.4-1.2c0-0.1-0.1-0.1-0.1-0.1   s-0.9,1.7-1.4,2.9c-0.4,0.9-0.6,1.6-0.9,2.2c-0.1,0.1-0.1,0.3-0.1,0.5C57.1,132.5,57.1,132.6,57.1,132.6 M51.3,132.8   c0,0,0.5-1.2,0.9-2.1c0.4-0.9,2.6-5.3,3.5-6.5c1-1.4,2.9-3.9,2.9-4c0-0.3,0.1-0.8,0.4-1.2c0.2-0.3,0.7-0.5,1.2-0.5   c0.5,0,1.1,0.4,1.4,0.8c0.5,0.9,1.3,3.3,1.5,3.9c0.9,3.2,2,9.3,2.3,12.4c0.1,0.8,0.4,5.1,0.4,6c0,0.7,0,1.8-0.4,2.3   c-0.1,0.2-0.4,0.4-0.7,0.4c-0.4,0-1.1-0.5-1.4-0.8c-0.9-0.8-1.5-1.7-1.6-2.7c-0.2-0.9-0.4-3.4-0.4-3.4l-3.8,0.1l-2.1,0   c0,0-0.2,0.5-0.4,0.9c-0.4,0.9-0.7,1.8-0.8,2.3c-0.3,1-0.8,3-0.9,3.3c-0.3,0.6-0.5,1-1.1,1.1c-0.7,0.1-1.2,0.1-1.7-0.1   c-0.9-0.5-1.4-1.6-1.5-2.8c-0.3-1.9,0.5-3.5,1.3-5.8c0.3-1-0.1-1.3-0.9-2.5c-0.1-0.2-0.2-0.3-0.2-0.5c0-0.1,0.1-0.5,0.3-0.6   c0.1,0,0.1,0,0.2-0.1L51.3,132.8 M29.6,120.3c0,0-0.1-1.2-0.2-1.9c-0.1-0.6-0.2-1-0.5-1.5c-0.3-0.5-0.5-0.8-1-0.9   c-0.6-0.1-0.9,0.3-1.3,0.9c-0.5,0.8-1,2.2-1.3,3.1c-0.4,1.3-0.6,2.1-0.8,3.6c-0.4,2.4-0.7,6.5-0.3,9.3c0.1,0.5,0.2,1.2,0.2,1.2   s0.6-0.7,1-1.1c0.2-0.2,1-1.5,1.1-1.6c0.2-0.3,0.6-0.9,0.6-1.1c0.1-0.1,0.7-1.5,0.8-1.8c0.2-0.6,0.5-1.5,0.8-2.3   c0.5-1.7,0.5-2.3,0.8-4.2C29.6,121.9,29.6,120.3,29.6,120.3C29.6,120.3,29.6,120.3,29.6,120.3 M25.4,138.3c0,0,0.2,0.4,0.4,0.7   c1,1.7,2.6,2.7,4.6,2.8c2,0.1,4.6-1.1,6-2.1c4.2-2.9,6.4-8.2,7.6-13.2c1.4-5.9,1.5-12.1-0.2-17.8c-1-3.3-2.9-7.5-5.2-9.9   c-0.7-0.7-1.8-1.7-2.1-2.2c-0.3-0.4-0.4-0.8,0.1-1.1c0.5-0.3,1.6,0.3,2.2,0.7c2.8,1.7,4.6,3.3,6.2,5.7c0.4,0.6,2.1,3.3,2.4,3.9   c1.9,3.5,2.8,6.5,3.3,10.4c0.6,4.9,0.2,10.5-1.5,15.4c-0.7,2.2-1.9,4.4-3.1,6.3c-0.3,0.4-2,2.8-2.2,3c-0.6,0.6-2.1,1.9-2.8,2.5   c-3.5,2.8-7.2,4.6-11.3,4.1c-2.3-0.3-4.1-1-5.9-2.5c-0.7-0.6-1.9-1.8-2.3-2.6c-0.3-0.5-0.7-1.2-0.7-1.2c-0.1,0-0.3,0.1-0.5,0.3   c-0.2,0.1-1,0.5-1.4,0.7c-2.8,1-6,0.8-8.5-0.9c-1.9-1.2-3.5-3.5-4.2-5.6c-1-3.1-1.1-6.3-0.7-9.6c0.7-5.6,2.7-10.9,5.7-15.6   c1.9-3,4.3-5.9,7.3-8c0.3-0.2,2.1-1.3,2.5-1.4c0.7-0.3,1.5-0.6,2-0.1c0.3,0.3,0.3,0.5,0.1,0.9c-0.3,0.6-1.1,1.4-1.5,1.8   c-0.4,0.4-2.5,3.1-3,3.7c-0.5,0.7-2.7,3.9-3,4.5c-2.8,4.8-5,12.4-4.8,18.3c0,1.2,0.2,3,0.5,4.1c0.4,1.5,1.3,3.6,2.7,4.6   c1.4,1,2.8,1,4.5,0.3c0.5-0.2,1.1-0.5,1.1-0.5s-0.5-1.3-0.8-2.3c-0.9-2.7-1.3-7-0.9-10c0.3-2.4,0.8-4.3,1.9-6.2   c0.9-1.5,2.1-3.1,3.5-4.3c1.4-1.2,3.7-2.3,5.7-2.3c1.7,0,3.4,0.7,4.3,2.2c1.5,2.6,1.6,6.8,1.2,9.5c-0.6,4.1-2.8,8-5.9,10.6   C27.6,136.7,25.4,138.3,25.4,138.3 M157.5,123c0.1,0,0.2,0.1,0.3,0.1c1,0.4,1.4,1.3,1.6,2.2c0.6,2.3,0.8,7.3,0.9,9.2   c0.1,1.5,0.1,2.9,0.2,4.4c0.1,1.2,0.1,2.9-0.1,4c-0.1,0.4-0.4,0.9-0.8,1.2c-0.5,0.3-1.5,0.3-2.1,0.2c-1.4-0.3-1.9-1.2-2.1-2.6   c-0.5-3.3-0.2-9.8,0-12.6c0.1-0.9,0.4-3.8,0.9-5C156.5,123.8,156.9,122.9,157.5,123 M114.2,128c0,0-2.1,0.1-3.5,0.3   c-1.8,0.2-5.2,0.8-7.2,1.5c-0.6,0.2-1.8,0.7-1.9,1.3c-0.1,0.6,0.3,1.1,0.7,1.6c0.3,0.3,1.7,1.7,2.1,2c1.7,1.4,5.1,3.6,7.6,4.6   c0.9,0.4,2.3,0.9,2.3,0.9s-0.1-4.1-0.1-8.1C114.1,130.1,114.2,128,114.2,128 M152.3,129.6c0.1,1.1-0.2,3.2-0.2,3.4   c-0.1,0.6-0.6,2.1-0.6,2.2c-0.4,0.9-0.8,1.6-1.2,2.3c-0.7,1.2-2.3,3.2-3.3,4c-3.6,3.1-9.1,4.9-13.9,5.4c-3.2,0.4-6.9,0.3-10.4-0.3   c-1.2-0.2-2.9-0.6-2.9-0.6s0,0.7-0.1,1.2c0,0.2-0.2,0.8-0.3,1c-0.2,0.5-0.7,0.8-1.2,0.9c-0.7,0.1-1.5,0.2-2.1-0.1   c-1.1-0.5-1.5-1.5-1.7-2.6c-0.2-0.9-0.3-2.6-0.3-2.6s-0.8-0.4-1.5-0.7c-2.1-1-4.1-2.3-5.8-3.6c-0.5-0.4-2.5-2.1-3-2.5   c-1.3-1.2-2.4-2.4-3.3-4c-0.7-1.2-0.9-2.3-0.4-3.6c0.7-1.8,3.3-3.1,5-3.9c1.3-0.6,5.3-1.9,6.9-2.1c0.8-0.1,2-0.3,2.1-0.4   c0,0,0.1,0,0.1-0.1c0-0.1,0.1-1.8,0.1-2.5c0-0.6,0.5-4.8,0.6-5.7c0.1-0.5,0.4-2.3,0.8-2.8c0.2-0.3,0.7-0.3,1-0.1   c1.9,1.2,2.5,5.3,2.6,7.4c0.1,1.3,0.1,3.2,0.1,3.2s2.2-0.1,3.5,0c1.3,0,2.7,0.2,4.1,0.5c1.7,0.3,5.1,1,7,2c1.6,0.8,3.1,2.2,3.6,3.6   c0.4,1.3,0.4,2.2-0.3,3.4c-0.8,1.3-2.2,2.3-3.7,2.4c-0.4,0-2.1-0.2-2.6-0.6c-0.2-0.2-0.2-0.4,0-0.6c0.1-0.1,0.8-0.5,1.3-0.7   c0.2-0.1,0.4-0.3,0.6-0.4c0.4-0.3,0.7-0.7,0.7-1.1c-0.1-0.6-0.6-0.9-1.2-1.1c-2.6-1-7.9-1.9-10.5-2.1c-1-0.1-2.4-0.1-2.4-0.1   l0.3,14.1c0,0,1.2,0.2,2.1,0.4c0.5,0.1,2.8,0.3,3.4,0.3c4.6,0.1,9.6-0.3,13.8-2.3c1.8-0.9,3.5-1.9,4.8-3.4c1.7-1.9,2.6-4.6,2.3-7.3   c-0.3-3-2.4-6.6-4.1-8.8c-4.5-5.7-12.1-10.5-18.9-13.2c-6.9-2.8-13.7-4.5-21-4.7c-1.9-0.1-6,0-8.1,0.6c-0.3,0.1-0.6,0.2-0.9,0.2   c-0.2,0-0.6,0.2-0.7,0.3c-0.1,0-0.1,0.1-0.1,0.1s0.1,0.1,0.2,0.1c0.2,0.1,1.1,0.2,1.6,0.2c0.4,0.1,0.9,0.3,1,0.6   c0.2,0.3,0.2,0.5,0,0.8c-0.5,0.6-2.2,0.5-3,0.4c-0.8-0.1-1.8-0.4-2-1.1c-0.2-0.8,0.2-1.6,0.6-2.4c0.9-1.5,2.1-2.3,3.9-2.8   c2.5-0.7,5.8-1.2,8.2-1.3c5.4-0.2,10.6,0.7,15.9,2.3c3,0.9,7,2.4,9.9,3.8c2.1,1,5.4,2.8,7.2,4.1c0.6,0.4,4,2.9,4.5,3.3   c1.1,0.9,2.5,2.2,3.6,3.2c2,2,4.5,5.1,5.7,7.5c0.3,0.6,0.5,1.2,0.9,1.8c0.1,0.2,0.7,1.6,0.8,2s0.2,1,0.2,1   C152.1,128,152.3,129.2,152.3,129.6z M175.8,130.7c0.1,0,0.1,0,0.2,0c1.7,0.2,3.3,0.5,4.6,1.1c1.2,0.5,1.8,1.2,2.5,2.3   c0.9,1.8,1,4.2,0.2,6.1c-0.6,1.4-2,2.5-3.3,3.2c-1.3,0.6-2.6,0.9-4.1,1.1c-2.6,0.3-5.5-0.2-7.8-1.4c-1.4-0.7-3.1-1.9-4-3.4   c-0.6-1.1-0.6-2.6,0.2-3.6c1.2-1.7,3.9-2,5.8-2c1.5,0.1,4.2,0.5,5.7,1c0.4,0.1,1.9,0.7,2.1,1c0.2,0.2,0.3,0.4,0.2,0.7   c-0.3,1-2.8,1.5-3.5,1.6c-1.9,0.3-2.9-0.4-5-1.3c-0.5-0.2-1.2-0.4-1.8-0.5c-1-0.1-2.1,0.2-2.3,1.2c-0.1,0.5,0.5,1.1,1,1.3   c1.1,0.5,2.1,0.7,3.2,0.7c3.3,0.1,7.1-0.5,9.8-2.4c0.4-0.3,0.7-0.7,0.7-1.1c0-0.1-0.1-0.6-0.3-0.7c0,0,0,0-0.1,0   c-0.1,0-0.2-0.2-0.3-0.3c-0.2-0.2-1-0.6-1.1-0.6c-1.8-0.8-5.2-1.1-7-1.3c-1.8-0.2-4.7-0.4-5.4-0.5c-0.7-0.1-1.5-0.2-2.1-0.5   c-0.6-0.3-1.2-0.9-1.4-1.6c-0.3-1.3,0.1-2.8,0.8-3.8c1.8-2.6,6.1-3.6,9.3-4c3.1-0.4,8.1-0.4,11.1,1.2c0.5,0.2,0.7,0.5,0.6,1   c-0.2,0.9-0.9,1.5-1.8,1.8c-0.9,0.3-2.8,0.4-3.6,0.4c-3.7,0.2-8.1,0.1-11.6,1c-0.3,0.1-0.7,0.2-0.9,0.4c-0.5,0.6,1,0.8,1.3,0.8   c0.1,0,0.1,0,0.2,0L175.8,130.7 M187.2,144.3c-1.5-0.5-1.8-2.9-1.9-4.1c-0.2-3.9,0.8-9.4,2.1-13.1c0.4-1.1,0.9-2.8,2.1-2.7   c0.8,0.1,1.4,0.7,1.8,1.3c1.2,1.6,2.7,3.8,3.7,5.4c1.1,1.7,2.2,3.5,3.3,5c0.1,0.2,0.3,0.4,0.4,0.5c0.2,0.2,0.4,0.2,0.4,0   c0-0.1,0-2-0.1-2.4c-0.1-0.6-0.1-1.1-0.2-1.7c-0.2-1.6-0.7-3.8-1.1-5.3c-0.4-1.7-1-3.4-1.4-5.1c-0.1-0.5-0.2-1.1-0.2-1.6   c0-0.7,0.5-1.1,1.2-0.9c1.5,0.5,3.5,3.8,4.1,4.9c0.2,0.4,1,2.3,1.2,2.9c0.6,1.9,1,3.6,1.2,5.7c0.2,2,0,4.9-0.8,6.8   c-0.3,0.7-0.9,1.7-1.5,2.2c-0.8,0.8-2.5,1.4-3.6,0.7c-1.2-0.7-3.3-4.2-3.6-4.8c-1.2-2.1-3.2-6.1-3.5-6.5c-0.1-0.1-0.2-0.2-0.3-0.2   c-0.1,0-0.2,0.2-0.2,0.4c-0.2,1.2-0.3,6.6-0.3,6.8c0,0.9-0.1,3.2-0.3,4.3c-0.2,0.7-0.3,1.3-1,1.6   C188.1,144.6,187.8,144.5,187.2,144.3 M207.5,144c-0.2-0.1-0.4-0.4-0.6-0.6c0,0-0.6-0.8-0.7-1.1c-0.1-0.2-0.2-0.4-0.2-0.5   c-0.5-1.3-0.5-2.5-0.2-3.8c0.3-1.3,0.5-1.3,1.1-3c0-0.1,0.1-0.2,0.1-0.3c0-0.2-0.4-1.8-0.4-2.3c0-0.8,0.6-1.3,1.6-1.4   c0.1,0,0.2,0,0.2,0c0.4-0.1,0.7-0.9,0.9-1.5c0.3-0.9,0.8-2.2,0.8-2.2s-1.3-0.3-2-0.5c-0.8-0.3-1.3-0.7-1.7-1.4   c-0.4-0.8-0.1-1.3,0.7-1.5c0.3-0.1,2.8-0.6,3.6-0.7c1-0.1,1.9-0.3,2.8-0.4c0.8-0.1,4.5-0.5,5.7-0.5c1.8,0.1,3,0.8,4,2.3   c0.6,0.8,0.9,1.8,0.1,2.3c-1.3,0.8-5.5,0.9-6.3,0.9c-1.2,0-2.9,0-2.9,0l-0.9,2.9c0,0,3,0,4.7,0c0.4,0,0.8,0,1.1,0.1   c0.9,0.2,1.2,0.9,1.2,1.8c0,1.1-0.2,1.7-1.1,1.8c-0.5,0.1-5.7,0.1-6.4,0.2c-0.4,0.1-0.9,0.1-0.9,0.1s-0.4,1-0.7,2   c-0.3,1-0.6,2.1-0.6,2.1s0.3,0,0.5,0c0.4,0,0.7,0,1-0.1c1.6-0.3,4-0.6,5.9-0.9c1-0.2,1.6-0.2,2.1,0.5c0.5,0.6,0.7,1.1,0.8,1.9   c0,0.7-0.5,1.2-1.2,1.7c-2,1.6-5.6,3.3-8.2,3.6c-1.2,0.1-1.5,0-2.6-0.3c-0.2-0.1-0.9-0.4-0.9-0.4   C208.1,144.4,207.7,144.1,207.5,144z M240.5,129.5c-1.3,1.1-3.1,3.4-3.9,4.6c-1.1,1.6-2.1,3.4-3.1,4.8c-0.2,0.3-0.9,1.4-0.8,1.5   c0,0.1,0.7,0.1,1.4-0.1c1.4-0.2,3.3-1.2,4.4-2.1c1.6-1.3,2.7-3,3.2-5c0.2-0.9,0.3-2.8-0.3-3.7C241.1,129.4,240.7,129.3,240.5,129.5    M229.8,146c0,0-0.4,1.3-0.7,2.2c-0.5,1.7-1.7,6.2-2,7.7c-0.4,2.1-1.6,7.6-1.6,7.7c-0.1,0.2-0.1,0.2-0.3,0.3   c-0.5,0.3-0.7,0.2-1.3-0.1c-0.8-0.4-1.4-0.8-2-1.6c-1.1-1.5-0.9-4.3-0.6-5.9c0.8-5.8,1.6-8.3,3.8-14c0-0.1,0-0.1,0-0.2   c-0.7-1.5-1.1-3.2-1.1-4.6c0-4.5,2.6-8.9,5.5-12.5c0.2-0.3,1.6-2,2.3-1.9c0.6,0,0.8,0.8,0.7,1.4c-0.3,2.1-1.8,4.2-2.8,5.9   c-1.1,2-1.4,2.8-1.9,4.6c-0.1,0.3-0.3,1.6-0.3,1.8c0,0.5,0.1,1.1,0.1,1.1s1.8-2.6,3-4.1c0.7-0.9,1.1-1.4,1.7-2.1   c0.6-0.6,2.7-2.9,3.3-3.4c1.3-1.2,1.9-1.7,3.3-2.5c1.1-0.6,2.1-0.7,3.2,0c1.7,1.1,2.5,3.5,2.7,5.4c0.2,2.3-0.2,4.9-1.3,6.9   c-1.2,2.4-2.9,4.1-5.1,5.5c-2.3,1.5-5,2.6-7.6,2.5C230.2,146,229.8,146,229.8,146" fill="white"></path>
</g>
</svg>